<svg width="114" height="96" viewBox="0 0 114 96" fill="none" xmlns="http://www.w3.org/2000/svg">
<path d="M29.8831 87.7852H98.1628C99.0541 87.7852 99.7766 87.0146 99.7766 86.064C99.7766 85.1133 99.0541 84.3427 98.1628 84.3427H32.803L21.9097 15.4915H18.6821L29.8831 87.7852Z" fill="#E1DFDD"/>
<path d="M16.2614 0H19.489L30.3823 68.8512L27.4624 72.2937L16.9281 4.3032H2.54389C1.42978 4.3032 0.526611 3.33989 0.526611 2.1516C0.526611 0.963304 1.42978 0 2.54389 0H16.2614Z" fill="#E1DFDD"/>
<path d="M37.2718 95.8389C34.552 95.8389 32.3472 93.3149 32.3472 90.2013C32.3472 87.0878 34.552 84.5637 37.2718 84.5637C39.9916 84.5637 42.1964 87.0878 42.1964 90.2013C42.1964 93.3149 39.9916 95.8389 37.2718 95.8389Z" fill="#C7C5C3"/>
<path d="M89.9273 95.8389C86.9983 95.8389 84.6238 93.3149 84.6238 90.2013C84.6238 87.0878 86.9983 84.5637 89.9273 84.5637C92.8563 84.5637 95.2307 87.0878 95.2307 90.2013C95.2307 93.3149 92.8563 95.8389 89.9273 95.8389Z" fill="#C7C5C3"/>
<path opacity="0.8" d="M110.157 16.1073H18.7098L25.9908 61.208H101.581C102.821 61.208 103.892 60.3426 104.153 59.1307L112.729 19.2918C113.081 17.6534 111.833 16.1073 110.157 16.1073Z" fill="url(#paint0_radial_681_1111)"/>
<defs>
<radialGradient id="paint0_radial_681_1111" cx="0" cy="0" r="1" gradientUnits="userSpaceOnUse" gradientTransform="translate(25.5285 62.2464) scale(78.0362 69.3837)">
<stop offset="0.00111607" stop-color="#8CB4E0"/>
<stop offset="0.9998" stop-color="#CADBF1"/>
</radialGradient>
</defs>
</svg>
