<svg width="14" height="14" viewBox="0 0 14 14" fill="none" xmlns="http://www.w3.org/2000/svg">
<path fill-rule="evenodd" clip-rule="evenodd" d="M3.1009 1.20906C3.86238 0.690569 4.71886 0.328153 5.62095 0.142719C6.52303 -0.0427145 7.45286 -0.0474962 8.3568 0.12865C9.26074 0.304796 10.1209 0.658384 10.8877 1.16902C11.6544 1.67965 12.3126 2.33722 12.8242 3.1038C13.3359 3.87038 13.6909 4.73079 13.8687 5.63541C14.0465 6.54003 14.0437 7.47095 13.8604 8.37447C13.677 9.27798 13.3168 10.1362 12.8005 10.8997C12.2842 11.6631 11.6221 12.3167 10.8522 12.8226C9.31396 13.8518 7.43031 14.2271 5.61567 13.8659C3.80104 13.5047 2.20405 12.4365 1.17602 10.8965C0.148003 9.35644 -0.22684 7.47061 0.133958 5.65387C0.494755 3.83712 1.56164 2.23828 3.0999 1.20906H3.1009ZM3.65499 11.9935C4.30781 12.4351 5.04136 12.7432 5.81349 12.9001C6.58562 13.0569 7.3811 13.0595 8.15422 12.9076C8.92734 12.7557 9.66285 12.4523 10.3185 12.0149C10.9741 11.5774 11.5369 11.0146 11.9746 10.3587C12.4123 9.70286 12.7161 8.96685 12.8688 8.19302C13.0214 7.41918 13.0198 6.62277 12.864 5.84956C12.7082 5.07635 12.4013 4.34159 11.961 3.6875C11.5206 3.03342 10.9555 2.4729 10.2981 2.03817C8.97942 1.16613 7.3695 0.852241 5.82029 1.16511C4.27109 1.47797 2.90861 2.39215 2.03068 3.7078C1.15275 5.02346 0.83078 6.63358 1.13515 8.1862C1.43953 9.73882 2.34549 11.1077 3.65499 11.9935V11.9935ZM5.48171 6.01811C5.48171 6.28272 5.37671 6.5365 5.18982 6.72361C5.00292 6.91072 4.74944 7.01584 4.48514 7.01584C4.22083 7.01584 3.96735 6.91072 3.78045 6.72361C3.59356 6.5365 3.48857 6.28272 3.48857 6.01811C3.48857 5.75349 3.59356 5.49972 3.78045 5.31261C3.96735 5.1255 4.22083 5.02038 4.48514 5.02038C4.74944 5.02038 5.00292 5.1255 5.18982 5.31261C5.37671 5.49972 5.48171 5.75349 5.48171 6.01811V6.01811ZM10.4646 6.01811C10.4646 6.28272 10.3596 6.5365 10.1727 6.72361C9.98577 6.91072 9.73229 7.01584 9.46799 7.01584C9.20368 7.01584 8.9502 6.91072 8.7633 6.72361C8.57641 6.5365 8.47142 6.28272 8.47142 6.01811C8.47142 5.75349 8.57641 5.49972 8.7633 5.31261C8.9502 5.1255 9.20368 5.02038 9.46799 5.02038C9.73229 5.02038 9.98577 5.1255 10.1727 5.31261C10.3596 5.49972 10.4646 5.75349 10.4646 6.01811ZM6.97656 10.009C6.43503 10.0103 5.90331 9.86439 5.43818 9.58675C4.97305 9.3091 4.59197 8.91019 4.33565 8.43261L3.46863 8.91152C3.81758 9.55801 4.33804 10.0955 4.97265 10.4647C5.60726 10.834 6.33137 11.0206 7.06518 11.0041C7.79899 10.9876 8.51401 10.7686 9.13141 10.3712C9.74881 9.97377 10.2446 9.41342 10.5642 8.75188L9.6673 8.32286C9.42216 8.82848 9.03978 9.25479 8.56392 9.55299C8.08806 9.85119 7.53795 10.0092 6.97656 10.009V10.009Z" fill="#313440"/>
</svg>
