<svg width="12" height="12" viewBox="0 0 12 12" fill="none" xmlns="http://www.w3.org/2000/svg">
<path d="M1.98778 1C1.39664 1 0.917436 1.52233 0.917436 2.16667V9.83333C0.917436 10.4777 1.39664 11 1.98778 11H9.02145C9.6126 11 10.0918 10.4777 10.0918 9.83333V7.16667C10.0918 6.89053 10.2972 6.66667 10.5505 6.66667C10.8039 6.66667 11.0092 6.89053 11.0092 7.16667V9.83333C11.0092 11.0299 10.1193 12 9.02145 12H1.98778C0.889961 12 0 11.0299 0 9.83333V2.16667C0 0.970047 0.889961 0 1.98778 0H4.43427C4.68761 0 4.893 0.22386 4.893 0.5C4.893 0.77614 4.68761 1 4.43427 1H1.98778ZM6.11622 0.5C6.11622 0.22386 6.32161 0 6.57495 0H10.5508C10.8041 0 11.0095 0.22386 11.0095 0.5V4.83333C11.0095 5.10947 10.8041 5.33333 10.5508 5.33333C10.2975 5.33333 10.0921 5.10947 10.0921 4.83333V1.70716L6.8993 5.18693C6.72015 5.38213 6.42975 5.38213 6.2506 5.18687C6.07145 4.9916 6.07145 4.675 6.2506 4.47976L9.44342 1H6.57495C6.32161 1 6.11622 0.77614 6.11622 0.5Z" fill="#0078D4"/>
</svg>
