<svg width="16" height="15" viewBox="0 0 16 15" fill="none" xmlns="http://www.w3.org/2000/svg">
<path d="M7.80835 15C7.11564 15 6.44898 14.9115 5.80835 14.7344C5.17293 14.5573 4.57658 14.3073 4.01929 13.9844C3.462 13.6562 2.95418 13.2656 2.49585 12.8125C2.04273 12.3542 1.6521 11.8464 1.32398 11.2891C1.00106 10.7318 0.751059 10.1354 0.573976 9.5C0.396892 8.85938 0.308351 8.19271 0.308351 7.5C0.308351 6.80729 0.396892 6.14323 0.573976 5.50781C0.751059 4.86719 1.00106 4.26823 1.32398 3.71094C1.6521 3.15365 2.04273 2.64844 2.49585 2.19531C2.95418 1.73698 3.462 1.34635 4.01929 1.02344C4.57658 0.695312 5.17293 0.442708 5.80835 0.265625C6.44898 0.0885417 7.11564 0 7.80835 0C8.50106 0 9.16512 0.0885417 9.80054 0.265625C10.4412 0.442708 11.0401 0.695312 11.5974 1.02344C12.1547 1.34635 12.6599 1.73698 13.113 2.19531C13.5714 2.64844 13.962 3.15365 14.2849 3.71094C14.613 4.26823 14.8656 4.86719 15.0427 5.50781C15.2198 6.14323 15.3084 6.80729 15.3084 7.5C15.3084 8.19271 15.2198 8.85938 15.0427 9.5C14.8656 10.1354 14.613 10.7318 14.2849 11.2891C13.962 11.8464 13.5714 12.3542 13.113 12.8125C12.6599 13.2656 12.1547 13.6562 11.5974 13.9844C11.0401 14.3073 10.4412 14.5573 9.80054 14.7344C9.16512 14.9115 8.50106 15 7.80835 15ZM7.80835 1C7.20939 1 6.63387 1.07812 6.08179 1.23438C5.5297 1.39062 5.01148 1.60938 4.5271 1.89062C4.04793 2.17188 3.61043 2.51042 3.2146 2.90625C2.81877 3.30208 2.48023 3.74219 2.19898 4.22656C1.91773 4.70573 1.69898 5.22396 1.54273 5.78125C1.38648 6.33333 1.30835 6.90625 1.30835 7.5C1.30835 8.09375 1.38648 8.66927 1.54273 9.22656C1.69898 9.77865 1.91773 10.2969 2.19898 10.7812C2.48023 11.2604 2.81877 11.6979 3.2146 12.0938C3.61043 12.4896 4.04793 12.8281 4.5271 13.1094C5.01148 13.3906 5.5297 13.6094 6.08179 13.7656C6.63387 13.9219 7.20939 14 7.80835 14C8.4021 14 8.97502 13.9219 9.5271 13.7656C10.0844 13.6094 10.6026 13.3906 11.0818 13.1094C11.5662 12.8281 12.0063 12.4896 12.4021 12.0938C12.7979 11.6979 13.1365 11.2604 13.4177 10.7812C13.699 10.2969 13.9177 9.77865 14.074 9.22656C14.2302 8.67448 14.3084 8.09896 14.3084 7.5C14.3084 6.90625 14.2302 6.33333 14.074 5.78125C13.9177 5.22396 13.699 4.70573 13.4177 4.22656C13.1365 3.74219 12.7979 3.30208 12.4021 2.90625C12.0063 2.51042 11.5662 2.17188 11.0818 1.89062C10.6026 1.60938 10.0844 1.39062 9.5271 1.23438C8.97502 1.07812 8.4021 1 7.80835 1ZM7.30835 6H8.30835V11H7.30835V6ZM7.30835 4H8.30835V5H7.30835V4Z" fill="#605E5C"/>
</svg>
