<svg width="17" height="16" viewBox="0 0 17 16" fill="none" xmlns="http://www.w3.org/2000/svg">
<path d="M8.75781 0C8.02344 0 7.3151 0.0963542 6.63281 0.289062C5.95052 0.476562 5.3151 0.744792 4.72656 1.09375C4.13281 1.44271 3.59375 1.86198 3.10938 2.35156C2.61979 2.83594 2.20052 3.375 1.85156 3.96875C1.5026 4.55729 1.23438 5.19271 1.04688 5.875C0.854167 6.55729 0.757812 7.26562 0.757812 8C0.757812 8.73438 0.854167 9.44271 1.04688 10.125C1.23438 10.8073 1.5026 11.4453 1.85156 12.0391C2.20052 12.6276 2.61979 13.1667 3.10938 13.6562C3.59375 14.1406 4.13281 14.5573 4.72656 14.9062C5.3151 15.2552 5.95052 15.526 6.63281 15.7188C7.3151 15.9062 8.02344 16 8.75781 16C9.49219 16 10.2005 15.9062 10.8828 15.7188C11.5651 15.526 12.2031 15.2552 12.7969 14.9062C13.3854 14.5573 13.9245 14.1406 14.4141 13.6562C14.8984 13.1667 15.3151 12.6276 15.6641 12.0391C16.013 11.4453 16.2839 10.8073 16.4766 10.125C16.6641 9.44271 16.7578 8.73438 16.7578 8C16.7578 7.26562 16.6641 6.55729 16.4766 5.875C16.2839 5.19271 16.013 4.55729 15.6641 3.96875C15.3151 3.375 14.8984 2.83594 14.4141 2.35156C13.9245 1.86198 13.3854 1.44271 12.7969 1.09375C12.2031 0.744792 11.5651 0.476562 10.8828 0.289062C10.2005 0.0963542 9.49219 0 8.75781 0ZM8.75781 15C8.11198 15 7.49219 14.9167 6.89844 14.75C6.29948 14.5833 5.74219 14.349 5.22656 14.0469C4.70573 13.7396 4.23438 13.375 3.8125 12.9531C3.38542 12.526 3.02083 12.0547 2.71875 11.5391C2.41146 11.0182 2.17448 10.4609 2.00781 9.86719C1.84115 9.26823 1.75781 8.64583 1.75781 8C1.75781 7.35417 1.84115 6.73438 2.00781 6.14062C2.17448 5.54167 2.41146 4.98438 2.71875 4.46875C3.02083 3.94792 3.38542 3.47656 3.8125 3.05469C4.23438 2.6276 4.70573 2.26302 5.22656 1.96094C5.74219 1.65365 6.29948 1.41667 6.89844 1.25C7.49219 1.08333 8.11198 1 8.75781 1C9.40365 1 10.026 1.08333 10.625 1.25C11.2188 1.41667 11.776 1.65365 12.2969 1.96094C12.8125 2.26302 13.2839 2.6276 13.7109 3.05469C14.1328 3.47656 14.4974 3.94792 14.8047 4.46875C15.1068 4.98438 15.3411 5.54167 15.5078 6.14062C15.6745 6.73438 15.7578 7.35417 15.7578 8C15.7578 8.64583 15.6745 9.26823 15.5078 9.86719C15.3411 10.4609 15.1068 11.0182 14.8047 11.5391C14.4974 12.0547 14.1328 12.526 13.7109 12.9531C13.2839 13.375 12.8125 13.7396 12.2969 14.0469C11.776 14.349 11.2188 14.5833 10.625 14.75C10.026 14.9167 9.40365 15 8.75781 15ZM5.29688 5.24219L8.04688 8L5.29688 10.7578L6 11.4609L8.75781 8.71094L11.5156 11.4609L12.2188 10.7578L9.46875 8L12.2188 5.24219L11.5156 4.53906L8.75781 7.28906L6 4.53906L5.29688 5.24219Z" fill="#A80000"/>
</svg>
