<svg width="14" height="14" viewBox="0 0 14 14" fill="none" xmlns="http://www.w3.org/2000/svg">
<path d="M14 2.29004C14 2.59082 13.943 2.88249 13.8291 3.16504C13.7152 3.44759 13.5488 3.69824 13.3301 3.91699L4.32715 12.9199L0 14L1.08008 9.67285L10.083 0.669922C10.3018 0.451172 10.5524 0.284831 10.835 0.170898C11.1175 0.0569661 11.4092 0 11.71 0C12.0244 0 12.3206 0.0615234 12.5986 0.18457C12.8766 0.30306 13.1182 0.467122 13.3232 0.676758C13.5329 0.881836 13.6969 1.12337 13.8154 1.40137C13.9385 1.67936 14 1.97559 14 2.29004ZM2.22852 9.76172C2.71159 9.92122 3.1263 10.1764 3.47266 10.5273C3.82357 10.8737 4.07878 11.2884 4.23828 11.7715L11.6279 4.375L9.625 2.37207L2.22852 9.76172ZM1.20312 12.7969L3.45215 12.2363C3.40658 12.0267 3.33138 11.8285 3.22656 11.6416C3.1263 11.4548 3.00326 11.2884 2.85742 11.1426C2.71159 10.9967 2.54525 10.8737 2.3584 10.7734C2.17155 10.6686 1.97331 10.5934 1.76367 10.5479L1.20312 12.7969ZM12.25 3.75293C12.3639 3.639 12.4733 3.5319 12.5781 3.43164C12.6829 3.33138 12.7764 3.22656 12.8584 3.11719C12.9404 3.00326 13.0042 2.88249 13.0498 2.75488C13.0999 2.62272 13.125 2.47005 13.125 2.29688C13.125 2.10091 13.0863 1.91862 13.0088 1.75C12.9359 1.57682 12.8333 1.42643 12.7012 1.29883C12.5736 1.16667 12.4232 1.06413 12.25 0.991211C12.0814 0.913737 11.8991 0.875 11.7031 0.875C11.5299 0.875 11.3773 0.900065 11.2451 0.950195C11.1175 0.995768 10.9967 1.05957 10.8828 1.1416C10.7734 1.22363 10.6686 1.31706 10.5684 1.42188C10.4681 1.52669 10.361 1.63607 10.2471 1.75L12.25 3.75293Z" fill="#0078D4"/>
</svg>
