<svg width="14" height="14" viewBox="0 0 14 14" fill="none" xmlns="http://www.w3.org/2000/svg">
<path d="M7 0C7.64258 0 8.26237 0.0843099 8.85938 0.25293C9.45638 0.416992 10.0124 0.651693 10.5273 0.957031C11.0469 1.26237 11.5186 1.62923 11.9424 2.05762C12.3708 2.48145 12.7376 2.95312 13.043 3.47266C13.3483 3.98763 13.583 4.54362 13.7471 5.14062C13.9157 5.73763 14 6.35742 14 7C14 7.64258 13.9157 8.26237 13.7471 8.85938C13.583 9.45638 13.3483 10.0146 13.043 10.5342C12.7376 11.0492 12.3708 11.5208 11.9424 11.9492C11.5186 12.373 11.0469 12.7376 10.5273 13.043C10.0124 13.3483 9.45638 13.5853 8.85938 13.7539C8.26237 13.918 7.64258 14 7 14C6.35742 14 5.73763 13.918 5.14062 13.7539C4.54362 13.5853 3.98535 13.3483 3.46582 13.043C2.95085 12.7376 2.47917 12.373 2.05078 11.9492C1.62695 11.5208 1.26237 11.0492 0.957031 10.5342C0.651693 10.0146 0.414714 9.45638 0.246094 8.85938C0.0820312 8.26237 0 7.64258 0 7C0 6.35742 0.0820312 5.73763 0.246094 5.14062C0.414714 4.54362 0.651693 3.98763 0.957031 3.47266C1.26237 2.95312 1.62695 2.48145 2.05078 2.05762C2.47917 1.62923 2.95085 1.26237 3.46582 0.957031C3.98535 0.651693 4.54362 0.416992 5.14062 0.25293C5.73763 0.0843099 6.35742 0 7 0ZM7.875 10.5V8.75H6.125V10.5H7.875ZM7.875 7.875V3.5H6.125V7.875H7.875Z" fill="#0078D4"/>
</svg>
