<svg width="15" height="15" viewBox="0 0 15 15" fill="none" xmlns="http://www.w3.org/2000/svg">
<path d="M7.5 0.03125C8.1875 0.03125 8.84896 0.119792 9.48438 0.296875C10.1198 0.473958 10.7135 0.726562 11.2656 1.05469C11.8229 1.3776 12.3281 1.76562 12.7812 2.21875C13.2344 2.67188 13.6224 3.17708 13.9453 3.73438C14.2734 4.28646 14.526 4.88021 14.7031 5.51562C14.8802 6.15104 14.9688 6.8125 14.9688 7.5C14.9688 8.1875 14.8802 8.84896 14.7031 9.48438C14.526 10.1198 14.2734 10.7161 13.9453 11.2734C13.6224 11.8255 13.2344 12.3281 12.7812 12.7812C12.3281 13.2344 11.8229 13.625 11.2656 13.9531C10.7135 14.276 10.1198 14.526 9.48438 14.7031C8.84896 14.8802 8.1875 14.9688 7.5 14.9688C6.8125 14.9688 6.15104 14.8802 5.51562 14.7031C4.88021 14.526 4.28385 14.276 3.72656 13.9531C3.17448 13.625 2.67188 13.2344 2.21875 12.7812C1.76562 12.3281 1.375 11.8255 1.04688 11.2734C0.723958 10.7161 0.473958 10.1198 0.296875 9.48438C0.119792 8.84896 0.03125 8.1875 0.03125 7.5C0.03125 6.8125 0.119792 6.15104 0.296875 5.51562C0.473958 4.88021 0.723958 4.28646 1.04688 3.73438C1.375 3.17708 1.76562 2.67188 2.21875 2.21875C2.67188 1.76562 3.17448 1.3776 3.72656 1.05469C4.28385 0.726562 4.88021 0.473958 5.51562 0.296875C6.15104 0.119792 6.8125 0.03125 7.5 0.03125ZM7.5 14.0312C8.09896 14.0312 8.67708 13.9531 9.23438 13.7969C9.79167 13.6406 10.3125 13.4219 10.7969 13.1406C11.2812 12.8542 11.7214 12.513 12.1172 12.1172C12.513 11.7214 12.8516 11.2812 13.1328 10.7969C13.4193 10.3125 13.6406 9.79167 13.7969 9.23438C13.9531 8.67708 14.0312 8.09896 14.0312 7.5C14.0312 6.90104 13.9531 6.32292 13.7969 5.76562C13.6406 5.20833 13.4193 4.6875 13.1328 4.20312C12.8516 3.71875 12.513 3.27865 12.1172 2.88281C11.7214 2.48698 11.2812 2.14844 10.7969 1.86719C10.3125 1.58073 9.79167 1.35938 9.23438 1.20312C8.67708 1.04688 8.09896 0.96875 7.5 0.96875C6.90104 0.96875 6.32292 1.04688 5.76562 1.20312C5.20833 1.35938 4.6875 1.58073 4.20312 1.86719C3.71875 2.14844 3.27865 2.48698 2.88281 2.88281C2.48698 3.27865 2.14583 3.71875 1.85938 4.20312C1.57812 4.6875 1.35938 5.20833 1.20312 5.76562C1.04688 6.32292 0.96875 6.90104 0.96875 7.5C0.96875 8.09896 1.04688 8.67708 1.20312 9.23438C1.35938 9.79167 1.57812 10.3125 1.85938 10.7969C2.14583 11.2812 2.48698 11.7214 2.88281 12.1172C3.27865 12.513 3.71875 12.8542 4.20312 13.1406C4.6875 13.4219 5.20833 13.6406 5.76562 13.7969C6.32292 13.9531 6.90104 14.0312 7.5 14.0312ZM7 11H8V12H7V11ZM7.5 3.5C7.84375 3.5 8.16667 3.56771 8.46875 3.70312C8.77083 3.83333 9.03385 4.01302 9.25781 4.24219C9.48698 4.46615 9.66667 4.72917 9.79688 5.03125C9.93229 5.33333 10 5.65625 10 6C10 6.3125 9.95052 6.58594 9.85156 6.82031C9.7526 7.04948 9.6276 7.25781 9.47656 7.44531C9.33073 7.63281 9.17188 7.80469 9 7.96094C8.82812 8.11198 8.66667 8.26562 8.51562 8.42188C8.36979 8.57292 8.2474 8.73698 8.14844 8.91406C8.04948 9.08594 8 9.28125 8 9.5V10H7V9.5C7 9.1875 7.04948 8.91667 7.14844 8.6875C7.2474 8.45312 7.36979 8.24219 7.51562 8.05469C7.66667 7.86719 7.82812 7.69792 8 7.54688C8.17188 7.39062 8.33073 7.23698 8.47656 7.08594C8.6276 6.92969 8.7526 6.76562 8.85156 6.59375C8.95052 6.42188 9 6.22396 9 6C9 5.79167 8.96094 5.59635 8.88281 5.41406C8.80469 5.23177 8.69792 5.07292 8.5625 4.9375C8.42708 4.80208 8.26823 4.69531 8.08594 4.61719C7.90365 4.53906 7.70833 4.5 7.5 4.5C7.29167 4.5 7.09635 4.53906 6.91406 4.61719C6.73177 4.69531 6.57292 4.80208 6.4375 4.9375C6.30208 5.07292 6.19531 5.23177 6.11719 5.41406C6.03906 5.59635 6 5.79167 6 6H5C5 5.65625 5.0651 5.33333 5.19531 5.03125C5.32552 4.72917 5.5026 4.46615 5.72656 4.24219C5.95573 4.01302 6.22135 3.83333 6.52344 3.70312C6.83073 3.56771 7.15625 3.5 7.5 3.5Z" fill="#0078D4"/>
</svg>
