<svg width="96" height="23" viewBox="0 0 96 23" fill="none" xmlns="http://www.w3.org/2000/svg">
<path d="M39.7966 4.92349V17.1895H37.7142V7.57261H37.6808L33.9575 17.1895H32.5775L28.7625 7.57545H28.7375V17.1895H26.8134V4.92349H29.7982L33.2439 14.0151H33.2939L36.9312 4.92349H39.7966ZM41.5375 5.8548C41.5375 5.51124 41.6597 5.2273 41.9012 4.99447C42.1428 4.76448 42.4315 4.64807 42.7675 4.64807C43.1257 4.64807 43.42 4.76732 43.6532 5.00299C43.8865 5.23866 44.0059 5.52259 44.0059 5.8548C44.0059 6.18984 43.8865 6.47378 43.6449 6.70093C43.4061 6.92808 43.1118 7.04449 42.7675 7.04449C42.4232 7.04449 42.1317 6.92808 41.8929 6.69809C41.6541 6.46526 41.5375 6.18417 41.5375 5.8548ZM43.7698 8.39603V17.1895H41.7457V8.39603H43.7698ZM49.9088 15.6818C50.2087 15.6818 50.5419 15.6108 50.9028 15.4689C51.2666 15.3269 51.5998 15.1395 51.908 14.9038V16.8289C51.5859 17.0163 51.2166 17.1611 50.8084 17.2577C50.3975 17.3542 49.9477 17.4025 49.4563 17.4025C48.1901 17.4025 47.1628 16.9936 46.3687 16.1759C45.5774 15.3581 45.1803 14.3133 45.1803 13.0412C45.1803 11.6272 45.5857 10.4631 46.3937 9.54597C47.2017 8.6317 48.3484 8.17456 49.8311 8.17456C50.2115 8.17456 50.5946 8.22567 50.9806 8.32504C51.3693 8.42442 51.6747 8.54084 51.9052 8.67145V10.6562C51.5914 10.4233 51.2749 10.2416 50.9473 10.1138C50.6286 9.98705 50.2897 9.9216 49.9477 9.92077C49.1508 9.92077 48.5067 10.1848 48.0152 10.7158C47.5238 11.2467 47.2794 11.9623 47.2794 12.8623C47.2794 13.7511 47.5154 14.4439 47.9875 14.9408C48.4622 15.4348 49.1009 15.6818 49.9088 15.6818ZM57.6721 8.24838C57.8332 8.24838 57.9775 8.25974 58.108 8.28245C58.2358 8.30517 58.344 8.33356 58.4357 8.36764V10.4631C58.3302 10.3836 58.1747 10.3069 57.972 10.2359C57.7693 10.165 57.5222 10.128 57.2306 10.128C56.7336 10.128 56.3144 10.341 55.9729 10.7697C55.6313 11.1985 55.4592 11.8572 55.4592 12.7459V17.1867H53.4351V8.39603H55.4592V9.78164H55.4925C55.6758 9.30179 55.9562 8.92699 56.3283 8.65725C56.7003 8.38467 57.1473 8.24838 57.6721 8.24838ZM58.544 12.9191C58.544 11.4654 58.9466 10.3126 59.749 9.46363C60.5514 8.61466 61.6676 8.18876 63.0948 8.18876C64.4386 8.18876 65.4882 8.59762 66.2434 9.41536C66.9986 10.2331 67.3762 11.3376 67.3762 12.7289C67.3762 14.1543 66.9736 15.29 66.1712 16.1333C65.3688 16.9766 64.2748 17.3996 62.8921 17.3996C61.5593 17.3996 60.5014 16.9993 59.7184 16.1986C58.9355 15.4007 58.544 14.3047 58.544 12.9191ZM60.6514 12.851C60.6514 13.7681 60.8541 14.4694 61.2622 14.955C61.6704 15.4405 62.2507 15.6818 63.0115 15.6818C63.7472 15.6818 64.3081 15.4405 64.694 14.955C65.08 14.4694 65.2716 13.7511 65.2716 12.7999C65.2716 11.8544 65.0717 11.1389 64.6746 10.6562C64.2748 10.1735 63.7167 9.93212 62.9976 9.93212C62.2562 9.93212 61.6815 10.1848 61.2705 10.6902C60.8568 11.1956 60.6514 11.9168 60.6514 12.851ZM70.386 10.7044C70.386 10.9997 70.4776 11.2326 70.6609 11.4029C70.8442 11.5704 71.2523 11.7834 71.8826 12.0389C72.6906 12.3711 73.2598 12.7431 73.5846 13.1548C73.9122 13.5693 74.0733 14.0691 74.0733 14.6568C74.0733 15.4831 73.7623 16.1475 73.1404 16.6501C72.5184 17.1526 71.6771 17.4025 70.6192 17.4025C70.2611 17.4025 69.8668 17.3571 69.4364 17.269C69.0033 17.181 68.6368 17.0674 68.3369 16.9312V14.8953C68.7062 15.1566 69.1005 15.3667 69.5253 15.52C69.9501 15.6733 70.3333 15.75 70.6803 15.75C71.1385 15.75 71.4744 15.6847 71.6938 15.5541C71.9131 15.4235 72.0186 15.202 72.0186 14.8953C72.0186 14.6114 71.9048 14.37 71.6799 14.1713C71.455 13.9725 71.0246 13.7482 70.3971 13.4898C69.6502 13.1718 69.1199 12.8112 68.8089 12.4109C68.4952 12.0105 68.3397 11.5051 68.3397 10.889C68.3397 10.0968 68.6479 9.44375 69.2643 8.93551C69.8807 8.42442 70.6803 8.16888 71.6605 8.16888C71.9603 8.16888 72.2991 8.20295 72.6711 8.2711C73.046 8.33924 73.3569 8.42726 73.6068 8.53516V10.5028C73.3403 10.3211 73.0265 10.165 72.6711 10.0315C72.313 9.90089 71.9603 9.83559 71.6077 9.83559C71.2218 9.83559 70.9219 9.91225 70.7081 10.0656C70.4943 10.2246 70.386 10.4375 70.386 10.7044ZM74.9451 12.9191C74.9451 11.4654 75.3477 10.3126 76.1502 9.46363C76.9526 8.61466 78.0688 8.18876 79.4959 8.18876C80.8398 8.18876 81.8893 8.59762 82.6446 9.41536C83.3998 10.2331 83.7774 11.3376 83.7774 12.7289C83.7774 14.1543 83.3748 15.29 82.5724 16.1333C81.7699 16.9766 80.676 17.3996 79.2932 17.3996C77.9605 17.3996 76.9026 16.9993 76.1196 16.1986C75.3366 15.4007 74.9451 14.3047 74.9451 12.9191ZM77.0525 12.851C77.0525 13.7681 77.2552 14.4694 77.6634 14.955C78.0715 15.4405 78.6519 15.6818 79.4126 15.6818C80.1484 15.6818 80.7093 15.4405 81.0952 14.955C81.4812 14.4694 81.6728 13.7511 81.6728 12.7999C81.6728 11.8544 81.4728 11.1389 81.0758 10.6562C80.676 10.1735 80.1179 9.93212 79.3987 9.93212C78.6574 9.93212 78.0826 10.1848 77.6717 10.6902C77.258 11.1956 77.0525 11.9168 77.0525 12.851ZM90.4939 10.0883H87.4786V17.1867H85.4294V10.0883H83.9912V8.39603H85.4294V7.17226C85.4294 6.24947 85.7238 5.49136 86.3124 4.90077C86.901 4.31019 87.6535 4.01489 88.5753 4.01489C88.8196 4.01489 89.039 4.02909 89.2278 4.05464C89.4166 4.0802 89.586 4.11995 89.7304 4.17106V5.95986C89.6637 5.9201 89.5471 5.87184 89.3777 5.81505C89.2111 5.75826 89.0168 5.72987 88.8002 5.72987C88.3754 5.72987 88.0505 5.86616 87.8201 6.1359C87.5924 6.40564 87.4786 6.80599 87.4786 7.33695V8.39887H90.4939V6.42267L92.5263 5.78949V8.39887H94.5755V10.0911H92.5263V14.2054C92.5263 14.7477 92.6235 15.1282 92.8151 15.3525C93.0067 15.5739 93.3093 15.6875 93.723 15.6875C93.8397 15.6875 93.9813 15.6591 94.1451 15.6023C94.3089 15.5455 94.4533 15.4774 94.5755 15.3979V17.11C94.4477 17.1839 94.2339 17.252 93.9369 17.3145C93.6398 17.3769 93.3454 17.4082 93.0539 17.4082C92.2015 17.4082 91.5601 17.1753 91.1353 16.7125C90.7077 16.2469 90.4967 15.5484 90.4967 14.6114V10.0883H90.4939Z" fill="#737373"/>
<path d="M0.824707 0.834839H10.3261V10.5511H0.824707V0.834839Z" fill="#F25022"/>
<path d="M11.3145 0.834839H20.8159V10.5511H11.3145V0.834839Z" fill="#7FBA00"/>
<path d="M0.824707 11.5619H10.3261V21.2782H0.824707V11.5619Z" fill="#00A4EF"/>
<path d="M11.3145 11.5619H20.8159V21.2782H11.3145V11.5619Z" fill="#FFB900"/>
</svg>
