<svg width="14" height="14" viewBox="0 0 14 14" fill="none" xmlns="http://www.w3.org/2000/svg">
<path d="M4.375 6.125C4.25195 6.125 4.13802 6.10221 4.0332 6.05664C3.92839 6.01107 3.83724 5.94954 3.75977 5.87207C3.68229 5.7946 3.61849 5.70117 3.56836 5.5918C3.51823 5.48242 3.49544 5.36849 3.5 5.25C3.5 5.12695 3.52279 5.01302 3.56836 4.9082C3.61393 4.80339 3.67546 4.71224 3.75293 4.63477C3.8304 4.55729 3.92383 4.49349 4.0332 4.44336C4.14258 4.39323 4.25651 4.37044 4.375 4.375C4.49805 4.375 4.61198 4.39779 4.7168 4.44336C4.82161 4.48893 4.91276 4.55046 4.99023 4.62793C5.06771 4.7054 5.13151 4.79883 5.18164 4.9082C5.23177 5.01758 5.25456 5.13151 5.25 5.25C5.25 5.37305 5.22721 5.48698 5.18164 5.5918C5.13607 5.69661 5.07454 5.78776 4.99707 5.86523C4.9196 5.94271 4.82617 6.00651 4.7168 6.05664C4.60742 6.10677 4.49349 6.12956 4.375 6.125ZM9.625 4.375C9.74805 4.375 9.86198 4.39779 9.9668 4.44336C10.0716 4.48893 10.1628 4.55046 10.2402 4.62793C10.3177 4.7054 10.3815 4.79883 10.4316 4.9082C10.4818 5.01758 10.5046 5.13151 10.5 5.25C10.5 5.37305 10.4772 5.48698 10.4316 5.5918C10.3861 5.69661 10.3245 5.78776 10.2471 5.86523C10.1696 5.94271 10.0762 6.00651 9.9668 6.05664C9.85742 6.10677 9.74349 6.12956 9.625 6.125C9.50195 6.125 9.38802 6.10221 9.2832 6.05664C9.17839 6.01107 9.08724 5.94954 9.00977 5.87207C8.93229 5.7946 8.86849 5.70117 8.81836 5.5918C8.76823 5.48242 8.74544 5.36849 8.75 5.25C8.75 5.12695 8.77279 5.01302 8.81836 4.9082C8.86393 4.80339 8.92546 4.71224 9.00293 4.63477C9.0804 4.55729 9.17383 4.49349 9.2832 4.44336C9.39258 4.39323 9.50651 4.37044 9.625 4.375ZM7 0C7.64258 0 8.26237 0.0820312 8.85938 0.246094C9.45638 0.410156 10.0146 0.644857 10.5342 0.950195C11.0537 1.25553 11.5254 1.62012 11.9492 2.04395C12.373 2.46777 12.7376 2.94173 13.043 3.46582C13.3483 3.98991 13.583 4.54818 13.7471 5.14062C13.9111 5.73307 13.9954 6.35286 14 7C14 7.64258 13.918 8.26237 13.7539 8.85938C13.5898 9.45638 13.3551 10.0146 13.0498 10.5342C12.7445 11.0537 12.3799 11.5254 11.9561 11.9492C11.5322 12.373 11.0583 12.7376 10.5342 13.043C10.0101 13.3483 9.45182 13.583 8.85938 13.7471C8.26693 13.9111 7.64714 13.9954 7 14C6.35742 14 5.73763 13.918 5.14062 13.7539C4.54362 13.5898 3.98535 13.3551 3.46582 13.0498C2.94629 12.7445 2.47461 12.3799 2.05078 11.9561C1.62695 11.5322 1.26237 11.0583 0.957031 10.5342C0.651693 10.0101 0.416992 9.4541 0.25293 8.86621C0.0888672 8.27832 0.00455729 7.65625 0 7C0 6.35742 0.0820312 5.73763 0.246094 5.14062C0.410156 4.54362 0.644857 3.98535 0.950195 3.46582C1.25553 2.94629 1.62012 2.47461 2.04395 2.05078C2.46777 1.62695 2.94173 1.26237 3.46582 0.957031C3.98991 0.651693 4.5459 0.416992 5.13379 0.25293C5.72168 0.0888672 6.34375 0.00455729 7 0ZM7 13.125C7.56055 13.125 8.10059 13.0521 8.62012 12.9062C9.13965 12.7604 9.62728 12.5553 10.083 12.291C10.5387 12.0267 10.9535 11.7054 11.3271 11.3271C11.7008 10.9489 12.0199 10.5365 12.2842 10.0898C12.5485 9.64323 12.7559 9.1556 12.9062 8.62695C13.0566 8.09831 13.1296 7.55599 13.125 7C13.125 6.43945 13.0521 5.89941 12.9062 5.37988C12.7604 4.86035 12.5553 4.37272 12.291 3.91699C12.0267 3.46126 11.7054 3.04655 11.3271 2.67285C10.9489 2.29915 10.5365 1.98014 10.0898 1.71582C9.64323 1.4515 9.1556 1.24414 8.62695 1.09375C8.09831 0.943359 7.55599 0.870443 7 0.875C6.43945 0.875 5.89941 0.947917 5.37988 1.09375C4.86035 1.23958 4.37272 1.44466 3.91699 1.70898C3.46126 1.97331 3.04655 2.2946 2.67285 2.67285C2.29915 3.05111 1.98014 3.46354 1.71582 3.91016C1.4515 4.35677 1.24414 4.8444 1.09375 5.37305C0.943359 5.90169 0.870443 6.44401 0.875 7C0.875 7.56055 0.947917 8.10059 1.09375 8.62012C1.23958 9.13965 1.44466 9.62728 1.70898 10.083C1.97331 10.5387 2.2946 10.9535 2.67285 11.3271C3.05111 11.7008 3.46354 12.0199 3.91016 12.2842C4.35677 12.5485 4.8444 12.7559 5.37305 12.9062C5.90169 13.0566 6.44401 13.1296 7 13.125ZM7 8.75C7.62891 8.75 8.22363 8.8776 8.78418 9.13281C9.34473 9.38802 9.83691 9.7526 10.2607 10.2266L9.60449 10.8076C9.26725 10.4294 8.8776 10.1377 8.43555 9.93262C7.99349 9.72754 7.51497 9.625 7 9.625C6.48958 9.625 6.01335 9.72754 5.57129 9.93262C5.12923 10.1377 4.7373 10.4294 4.39551 10.8076L3.73926 10.2266C4.15853 9.75716 4.64844 9.39486 5.20898 9.13965C5.76953 8.88444 6.36654 8.75456 7 8.75Z" fill="#313440"/>
</svg>
