<?xml version="1.0" encoding="utf-8"?>
<!-- Generator: Adobe Illustrator 25.0.1, SVG Export Plug-In . SVG Version: 6.00 Build 0)  -->
<svg version="1.1" id="Layer_1" xmlns="http://www.w3.org/2000/svg" xmlns:xlink="http://www.w3.org/1999/xlink" x="0px" y="0px"
	 viewBox="0 0 70 70" style="enable-background:new 0 0 70 70;" xml:space="preserve">
<style type="text/css">
	.st0{fill:none !important;stroke:#EE5F25;stroke-miterlimit:10;}
	.st1{fill:#EE5F25;stroke:#EE5F25;stroke-miterlimit:10;}
</style>
<path class="st0" d="M6.12,29.43c0,0-2.66,0-2.66,2.66c0,2.66,0,32.84,0,32.84s-0.41,2.36,2.36,2.36s21.88,0,21.88,0
	s2.34,0.55,2.34-2.34s0-32.51,0-32.51s0.27-2.67-2.67-2.67S6.12,29.43,6.12,29.43z"/>
<path class="st0" d="M27.69,67.33"/>
<path class="st0" d="M9.36,33.87c0,0-1.86,0-1.86,0.42s0,5.14,0,5.14S7.22,39.8,9.15,39.8s15.27,0,15.27,0s1.63,0.09,1.63-0.37
	s0-5.09,0-5.09s0.19-0.42-1.86-0.42S9.36,33.87,9.36,33.87z"/>
<line class="st0" x1="3.45" y1="46.77" x2="30.03" y2="46.77"/>
<line class="st0" x1="16.77" y1="46.77" x2="16.77" y2="67.29"/>
<line class="st0" x1="3.45" y1="57.03" x2="30.03" y2="57.03"/>
<line class="st0" x1="7.49" y1="51.96" x2="11.71" y2="51.96"/>
<line class="st0" x1="9.6" y1="49.78" x2="9.6" y2="53.87"/>
<line class="st0" x1="21.68" y1="51.96" x2="25.09" y2="51.96"/>
<line class="st0" x1="21.68" y1="60.43" x2="25.09" y2="60.43"/>
<line class="st0" x1="21.68" y1="63.98" x2="25.09" y2="63.98"/>
<line class="st0" x1="7.49" y1="60.43" x2="11.38" y2="64.31"/>
<line class="st0" x1="11.38" y1="60.43" x2="7.49" y2="64.31"/>
<line class="st0" x1="32.06" y1="9.77" x2="59.37" y2="9.77"/>
<line class="st0" x1="32.06" y1="14" x2="59.37" y2="14"/>
<line class="st0" x1="32.06" y1="18.24" x2="59.37" y2="18.24"/>
<line class="st0" x1="32.06" y1="22.47" x2="59.37" y2="22.47"/>
<line class="st0" x1="32.06" y1="26.29" x2="59.37" y2="26.29"/>
<rect x="30.03" y="57.69" class="st1" width="8.17" height="9.41"/>
<rect x="41.34" y="49.78" class="st1" width="9.01" height="17.33"/>
<rect x="53.49" y="38.58" class="st1" width="9.28" height="28.52"/>
<path class="st0" d="M47.63,33.4c0,0-4.28-1.4-5.78,1.6c-1.5,3-0.5,5.36-0.5,5.36s1.89,4.71,5.43,2.68"/>
<line class="st0" x1="39.38" y1="36.84" x2="46.77" y2="36.84"/>
<line class="st0" x1="39.38" y1="39.81" x2="46.77" y2="39.81"/>
<path class="st0" d="M27.69,67.33h36.78c2.64,0,2.44-2.45,2.44-2.45s0-54.12,0-57.72s-3.17-3.18-3.17-3.18s-34.13,0-36.52,0
	S25.1,6.09,25.1,6.09v23.74"/>
</svg>
