<?xml version="1.0" encoding="utf-8"?>
<!-- Generator: Adobe Illustrator 25.0.1, SVG Export Plug-In . SVG Version: 6.00 Build 0)  -->
<svg version="1.1" id="Layer_1" xmlns="http://www.w3.org/2000/svg" xmlns:xlink="http://www.w3.org/1999/xlink" x="0px" y="0px"
	 viewBox="0 0 70 70" style="enable-background:new 0 0 70 70;" xml:space="preserve">
<style type="text/css">
	.st0{fill:none;stroke:#EE5F25;stroke-miterlimit:10;}
	.st1{fill:#EE5F25;stroke:#EE5F25;stroke-miterlimit:10;}
</style>
<circle class="st0" cx="36.26" cy="35.26" r="32.38"/>
<line class="st0" x1="19.99" y1="29.1" x2="3.09" y2="29.1"/>
<line class="st0" x1="19.99" y1="35.26" x2="1.35" y2="35.26"/>
<line class="st0" x1="19.99" y1="40.63" x2="3.09" y2="40.63"/>
<polyline class="st0" points="67.12,45.06 67.12,36 61.48,28.67 53.16,28.67 53.16,46.89 "/>
<polyline class="st0" points="53.16,28.67 53.16,20.94 27.05,20.94 27.05,46.89 33.6,46.89 "/>
<circle class="st0" cx="36.05" cy="46.89" r="2.45"/>
<circle class="st0" cx="60.64" cy="46.89" r="2.45"/>
<line class="st0" x1="38.51" y1="46.89" x2="58.19" y2="46.89"/>
<line class="st0" x1="63.1" y1="46.89" x2="66.31" y2="46.89"/>
<polygon class="st1" points="36.05,20.94 36.05,35.11 40.59,30.57 44.98,34.97 44.98,20.94 "/>
</svg>
