<?xml version="1.0" encoding="utf-8"?>
<!-- Generator: Adobe Illustrator 25.0.1, SVG Export Plug-In . SVG Version: 6.00 Build 0)  -->
<svg version="1.1" id="Layer_1" xmlns="http://www.w3.org/2000/svg" xmlns:xlink="http://www.w3.org/1999/xlink" x="0px" y="0px"
	 viewBox="0 0 70 70" style="enable-background:new 0 0 70 70;" xml:space="preserve">
<style type="text/css">
	.st0{fill:#EE5F25;}
	.st1{fill:none;stroke:#EE5F25;stroke-miterlimit:10;}
	.st2{fill:none !important;stroke:#FFFFFF;stroke-width:2.8346;stroke-miterlimit:10;}
	.st3{fill:#FFFFFF;stroke:#FFFFFF;stroke-width:1.4173;stroke-miterlimit:10;}
</style>
<circle class="st0" cx="35" cy="49.18" r="12.38"/>
<rect x="9.96" y="29.01" class="st1" width="50.09" height="40.34"/>
<path class="st1" d="M19.73,29.01V9.83c0,0,2.12-9.12,14.94-9.12s15.41,8.41,15.41,8.41v19.89"/>
<path class="st1" d="M26.33,29.01V14.47c0,0,0.59-7.31,8.67-7.31s7.7,7.7,7.7,7.7v14.16"/>
<path class="st2" d="M39.24,43.87c0,0-4.9-2.1-7.8,1.49c-2.9,3.59-0.29,7.73-0.29,7.73s2.65,3.81,8.27,1.56"/>
<line class="st3" x1="27.58" y1="48.01" x2="38.4" y2="48.01"/>
<line class="st3" x1="27.58" y1="50.26" x2="38.4" y2="50.26"/>
</svg>
