<?xml version="1.0" encoding="utf-8"?>
<!-- Generator: Adobe Illustrator 25.0.1, SVG Export Plug-In . SVG Version: 6.00 Build 0)  -->
<svg version="1.1" id="Layer_1" xmlns="http://www.w3.org/2000/svg" xmlns:xlink="http://www.w3.org/1999/xlink" x="0px" y="0px"
	 viewBox="0 0 70 70" style="enable-background:new 0 0 70 70;" xml:space="preserve">
<style type="text/css">
	.st0{fill:none;stroke:#EE5F25;stroke-width:0.8504;stroke-miterlimit:10;}
	.st1{fill:#EE5F25;stroke:#EE5F25;stroke-width:0.8504;stroke-miterlimit:10;}
</style>
<path class="st0" d="M12.86,6.74V63.8c0,0,0.2,3.8,3.8,3.8s36.13,0,36.13,0s3.52-0.71,3.52-3.52c0-2.81,0-57.34,0-57.34
	s0.2-4.35-4.35-4.35s-35.26,0-35.26,0S12.86,2.99,12.86,6.74z"/>
<rect x="24.2" y="4.51" class="st0" width="22.19" height="19.56"/>
<path class="st1" d="M24.2,19.11l6.49-6.99c0,0,1.49-1.72,3.03,0s1.53,1.72,1.53,1.72s1.62,0.71,2.74,0.46s2.63-1.02,3.75,0.93
	s4.66,3.88,4.66,3.88v4.97H24.2V19.11z"/>
<circle class="st0" cx="40.73" cy="9.51" r="2.56"/>
<line class="st0" x1="21.17" y1="27.42" x2="49.14" y2="27.42"/>
<line class="st0" x1="49.14" y1="32.28" x2="21.17" y2="32.28"/>
<line class="st0" x1="21.17" y1="37.38" x2="49.14" y2="37.38"/>
<path class="st0" d="M38.59,41.3c0,0-6.57-1.11-6.57,3.45s0,3.24,0,3.24s0.18,4.16,6.57,2.84"/>
<line class="st0" x1="29.38" y1="44.55" x2="38.59" y2="44.55"/>
<line class="st0" x1="29.38" y1="47.48" x2="38.59" y2="47.48"/>
<polyline class="st0" points="27.9,54.36 30.71,54.36 32.41,62.16 39.72,62.16 "/>
<path class="st0" d="M32.01,60.33h6.11c0,0,0.97,0.23,1.16-1.13s0-3.1,0-3.1h-8.19"/>
<line class="st0" x1="33.62" y1="62.16" x2="33.62" y2="64.09"/>
<line class="st0" x1="38.12" y1="62.16" x2="38.12" y2="64.09"/>
<circle class="st0" cx="33.62" cy="64.97" r="0.63"/>
<circle class="st0" cx="38.12" cy="64.97" r="0.63"/>
</svg>
